<mxfile host="65bd71144e">
    <diagram id="vJ7ydH46MOblnT7fgSfL" name="Страница 1">
        <mxGraphModel dx="1518" dy="533" grid="1" gridSize="10" guides="1" tooltips="1" connect="1" arrows="1" fold="1" page="1" pageScale="1" pageWidth="850" pageHeight="1100" math="0" shadow="0">
            <root>
                <mxCell id="0"/>
                <mxCell id="1" parent="0"/>
                <mxCell id="2" value="" style="rounded=0;whiteSpace=wrap;html=1;fillColor=#f5f5f5;fontColor=#333333;strokeColor=#000000;strokeWidth=3;" parent="1" vertex="1">
                    <mxGeometry y="50" width="760" height="610" as="geometry"/>
                </mxCell>
                <mxCell id="46" value="" style="edgeStyle=none;html=1;fontSize=20;strokeWidth=3;strokeColor=#000000;endArrow=none;endFill=0;" edge="1" parent="1" source="5" target="38">
                    <mxGeometry relative="1" as="geometry"/>
                </mxCell>
                <mxCell id="48" value="" style="edgeStyle=none;shape=connector;rounded=1;html=1;labelBackgroundColor=default;strokeColor=#000000;strokeWidth=3;fontFamily=Helvetica;fontSize=20;fontColor=default;endArrow=none;endFill=0;" edge="1" parent="1" source="5" target="20">
                    <mxGeometry relative="1" as="geometry"/>
                </mxCell>
                <mxCell id="50" style="edgeStyle=none;shape=connector;rounded=1;html=1;exitX=0;exitY=0;exitDx=0;exitDy=0;entryX=1;entryY=1;entryDx=0;entryDy=0;labelBackgroundColor=default;strokeColor=#000000;strokeWidth=3;fontFamily=Helvetica;fontSize=20;fontColor=default;endArrow=none;endFill=0;" edge="1" parent="1" source="5" target="21">
                    <mxGeometry relative="1" as="geometry"/>
                </mxCell>
                <mxCell id="52" style="edgeStyle=none;shape=connector;rounded=1;html=1;exitX=1;exitY=1;exitDx=0;exitDy=0;entryX=0;entryY=0;entryDx=0;entryDy=0;labelBackgroundColor=default;strokeColor=#000000;strokeWidth=3;fontFamily=Helvetica;fontSize=20;fontColor=default;endArrow=none;endFill=0;" edge="1" parent="1" source="5" target="40">
                    <mxGeometry relative="1" as="geometry"/>
                </mxCell>
                <mxCell id="53" style="edgeStyle=none;shape=connector;rounded=1;html=1;exitX=1;exitY=0;exitDx=0;exitDy=0;entryX=0;entryY=1;entryDx=0;entryDy=0;labelBackgroundColor=default;strokeColor=#000000;strokeWidth=3;fontFamily=Helvetica;fontSize=20;fontColor=default;endArrow=none;endFill=0;" edge="1" parent="1" source="5" target="39">
                    <mxGeometry relative="1" as="geometry"/>
                </mxCell>
                <mxCell id="5" value="&lt;font size=&quot;1&quot; style=&quot;&quot;&gt;&lt;b style=&quot;font-size: 12px;&quot;&gt;Микроконтроллер&lt;/b&gt;&lt;/font&gt;" style="rounded=0;whiteSpace=wrap;html=1;fillColor=#f5f5f5;fontColor=#333333;strokeColor=#000000;strokeWidth=3;" parent="1" vertex="1">
                    <mxGeometry x="360" y="310" width="120" height="60" as="geometry"/>
                </mxCell>
                <mxCell id="20" value="&lt;font style=&quot;font-size: 20px;&quot;&gt;PHY &lt;br&gt;Ethernet&lt;/font&gt;" style="rounded=0;whiteSpace=wrap;html=1;fillColor=#f5f5f5;fontColor=#333333;strokeColor=#000000;strokeWidth=3;" parent="1" vertex="1">
                    <mxGeometry x="360" y="220" width="120" height="60" as="geometry"/>
                </mxCell>
                <mxCell id="21" value="&lt;span style=&quot;color: rgb(0, 0, 0); font-size: 16px;&quot;&gt;Драйвер&lt;/span&gt;&lt;br style=&quot;color: rgb(0, 0, 0); font-size: 16px;&quot;&gt;&lt;span style=&quot;color: rgb(0, 0, 0); font-size: 16px;&quot;&gt;RS-485&lt;/span&gt;" style="rounded=0;whiteSpace=wrap;html=1;fillColor=#f5f5f5;fontColor=#333333;strokeColor=#000000;strokeWidth=3;" parent="1" vertex="1">
                    <mxGeometry x="210" y="220" width="120" height="60" as="geometry"/>
                </mxCell>
                <mxCell id="38" value="&lt;font color=&quot;#000000&quot;&gt;&lt;span style=&quot;font-size: 16px;&quot;&gt;Модуль&amp;nbsp;&lt;br&gt;Bluetooth&lt;br&gt;&lt;/span&gt;&lt;/font&gt;" style="rounded=0;whiteSpace=wrap;html=1;fillColor=#f5f5f5;fontColor=#333333;strokeColor=#000000;strokeWidth=3;" vertex="1" parent="1">
                    <mxGeometry x="360" y="400" width="120" height="60" as="geometry"/>
                </mxCell>
                <mxCell id="39" value="&lt;font color=&quot;#000000&quot;&gt;&lt;span style=&quot;font-size: 16px;&quot;&gt;Модуль&amp;nbsp;&lt;br&gt;WiFi&lt;br&gt;&lt;/span&gt;&lt;/font&gt;" style="rounded=0;whiteSpace=wrap;html=1;fillColor=#f5f5f5;fontColor=#333333;strokeColor=#000000;strokeWidth=3;" vertex="1" parent="1">
                    <mxGeometry x="520" y="220" width="120" height="60" as="geometry"/>
                </mxCell>
                <mxCell id="40" value="&lt;font color=&quot;#000000&quot;&gt;&lt;span style=&quot;font-size: 16px;&quot;&gt;Питание&lt;br&gt;&lt;/span&gt;&lt;/font&gt;" style="rounded=0;whiteSpace=wrap;html=1;fillColor=#f5f5f5;fontColor=#333333;strokeColor=#000000;strokeWidth=3;" vertex="1" parent="1">
                    <mxGeometry x="520" y="400" width="120" height="60" as="geometry"/>
                </mxCell>
                <mxCell id="66" style="edgeStyle=none;shape=connector;rounded=1;html=1;exitX=1;exitY=0;exitDx=0;exitDy=0;entryX=0;entryY=1;entryDx=0;entryDy=0;labelBackgroundColor=default;strokeColor=#000000;strokeWidth=3;fontFamily=Helvetica;fontSize=15;fontColor=default;startArrow=none;startFill=0;endArrow=none;endFill=0;" edge="1" parent="1" source="41" target="5">
                    <mxGeometry relative="1" as="geometry"/>
                </mxCell>
                <mxCell id="41" value="&lt;font color=&quot;#000000&quot;&gt;&lt;span style=&quot;font-size: 16px;&quot;&gt;Память&lt;br&gt;&lt;/span&gt;&lt;/font&gt;" style="rounded=0;whiteSpace=wrap;html=1;fillColor=#f5f5f5;fontColor=#333333;strokeColor=#000000;strokeWidth=3;" vertex="1" parent="1">
                    <mxGeometry x="210" y="400" width="120" height="60" as="geometry"/>
                </mxCell>
                <mxCell id="64" value="" style="edgeStyle=none;shape=connector;rounded=1;html=1;labelBackgroundColor=default;strokeColor=#000000;strokeWidth=3;fontFamily=Helvetica;fontSize=15;fontColor=default;startArrow=none;startFill=0;endArrow=none;endFill=0;" edge="1" parent="1" source="43" target="5">
                    <mxGeometry relative="1" as="geometry"/>
                </mxCell>
                <mxCell id="43" value="&lt;font color=&quot;#000000&quot;&gt;&lt;span style=&quot;font-size: 16px;&quot;&gt;Система тактирования&lt;br&gt;&lt;/span&gt;&lt;/font&gt;" style="rounded=0;whiteSpace=wrap;html=1;fillColor=#f5f5f5;fontColor=#333333;strokeColor=#000000;strokeWidth=3;" vertex="1" parent="1">
                    <mxGeometry x="520" y="310" width="120" height="60" as="geometry"/>
                </mxCell>
                <mxCell id="65" value="" style="edgeStyle=none;shape=connector;rounded=1;html=1;labelBackgroundColor=default;strokeColor=#000000;strokeWidth=3;fontFamily=Helvetica;fontSize=15;fontColor=default;startArrow=none;startFill=0;endArrow=none;endFill=0;" edge="1" parent="1" source="44" target="5">
                    <mxGeometry relative="1" as="geometry"/>
                </mxCell>
                <mxCell id="44" value="&lt;font color=&quot;#000000&quot;&gt;&lt;span style=&quot;font-size: 16px;&quot;&gt;Драйвер&lt;br&gt;CAN&lt;br&gt;&lt;/span&gt;&lt;/font&gt;" style="rounded=0;whiteSpace=wrap;html=1;fillColor=#f5f5f5;fontColor=#333333;strokeColor=#000000;strokeWidth=3;" vertex="1" parent="1">
                    <mxGeometry x="210" y="310" width="120" height="60" as="geometry"/>
                </mxCell>
            </root>
        </mxGraphModel>
    </diagram>
</mxfile>